<svg xmlns="http://www.w3.org/2000/svg" viewBox="0 0 32 32" aria-hidden="true">
  <defs>
    <clipPath id="us-clip"><circle cx="16" cy="16" r="16"/></clipPath>
  </defs>
  <g clip-path="url(#us-clip)">
    <rect width="32" height="32" fill="#B22234"/>
    <rect y="2.46" width="32" height="2.46" fill="#fff"/>
    <rect y="7.38" width="32" height="2.46" fill="#fff"/>
    <rect y="12.31" width="32" height="2.46" fill="#fff"/>
    <rect y="17.23" width="32" height="2.46" fill="#fff"/>
    <rect y="22.15" width="32" height="2.46" fill="#fff"/>
    <rect y="27.08" width="32" height="2.46" fill="#fff"/>
    <rect width="12.8" height="17.23" fill="#3C3B6E"/>
    <g fill="#fff">
      <circle cx="2.56" cy="2.15" r="0.72"/>
      <circle cx="5.12" cy="2.15" r="0.72"/>
      <circle cx="7.68" cy="2.15" r="0.72"/>
      <circle cx="10.24" cy="2.15" r="0.72"/>
      <circle cx="3.84" cy="4.31" r="0.72"/>
      <circle cx="6.4" cy="4.31" r="0.72"/>
      <circle cx="8.96" cy="4.31" r="0.72"/>
      <circle cx="2.56" cy="6.46" r="0.72"/>
      <circle cx="5.12" cy="6.46" r="0.72"/>
      <circle cx="7.68" cy="6.46" r="0.72"/>
      <circle cx="10.24" cy="6.46" r="0.72"/>
      <circle cx="3.84" cy="8.62" r="0.72"/>
      <circle cx="6.4" cy="8.62" r="0.72"/>
      <circle cx="8.96" cy="8.62" r="0.72"/>
      <circle cx="2.56" cy="10.77" r="0.72"/>
      <circle cx="5.12" cy="10.77" r="0.72"/>
      <circle cx="7.68" cy="10.77" r="0.72"/>
      <circle cx="10.24" cy="10.77" r="0.72"/>
      <circle cx="3.84" cy="12.92" r="0.72"/>
      <circle cx="6.4" cy="12.92" r="0.72"/>
      <circle cx="8.96" cy="12.92" r="0.72"/>
      <circle cx="2.56" cy="15.08" r="0.72"/>
      <circle cx="5.12" cy="15.08" r="0.72"/>
      <circle cx="7.68" cy="15.08" r="0.72"/>
      <circle cx="10.24" cy="15.08" r="0.72"/>
    </g>
  </g>
  <circle cx="16" cy="16" r="15.5" fill="none" stroke="rgba(255,255,255,0.12)" stroke-width="1"/>
</svg>
